<?xml version="1.0" standalone="no"?>
<!DOCTYPE svg PUBLIC "-//W3C//DTD SVG 20010904//EN"
 "http://www.w3.org/TR/2001/REC-SVG-20010904/DTD/svg10.dtd">
<svg version="1.0" xmlns="http://www.w3.org/2000/svg"
 width="800.000000pt" height="800.000000pt" viewBox="0 0 800.000000 800.000000"
 preserveAspectRatio="xMidYMid meet">

<g transform="translate(0.000000,800.000000) scale(0.100000,-0.100000)"
fill="#000000" stroke="none">
<path d="M5516 5249 c-14 -17 -26 -34 -26 -39 0 -8 -62 -136 -124 -258 -37
-72 -105 -246 -115 -292 -13 -60 -34 -120 -41 -120 -4 0 -13 7 -20 15 -7 8
-20 15 -29 15 -9 0 -21 4 -26 9 -15 15 -133 56 -215 76 -41 9 -85 21 -98 26
-13 5 -37 9 -55 9 -18 0 -68 7 -112 14 -44 8 -102 17 -130 20 -27 3 -99 11
-160 18 -150 18 -1072 18 -1165 1 -36 -7 -89 -15 -119 -18 -30 -3 -70 -12 -90
-21 -20 -9 -51 -22 -69 -30 l-34 -14 -56 59 c-88 91 -168 181 -162 181 3 0 -7
10 -21 23 -48 41 -187 211 -215 262 -6 11 -21 21 -32 23 -17 3 -26 -7 -47 -49
-14 -29 -25 -58 -25 -65 0 -7 -13 -39 -29 -71 -46 -91 -91 -190 -91 -197 0 -4
-25 -52 -55 -107 -30 -54 -59 -116 -64 -137 -5 -20 -19 -62 -31 -92 -12 -30
-28 -82 -36 -115 -7 -33 -22 -98 -33 -145 -19 -83 -27 -136 -52 -326 l-12 -92
-41 -5 c-40 -6 -132 -31 -171 -48 -37 -15 -186 -59 -203 -59 -9 0 -25 -7 -35
-14 -22 -17 -13 -76 12 -76 24 1 103 19 126 30 29 13 292 90 309 90 2 0 6 -30
10 -67 3 -38 8 -86 12 -108 5 -33 2 -42 -14 -50 -124 -62 -245 -138 -271 -169
-16 -19 -7 -64 15 -73 9 -3 27 5 42 19 26 23 84 62 127 84 11 6 45 25 76 42
l57 32 32 -77 c32 -78 61 -140 96 -200 18 -30 18 -32 1 -51 -9 -10 -17 -24
-17 -30 0 -6 -13 -30 -29 -54 -33 -51 -45 -105 -31 -142 8 -22 13 -25 29 -17
10 6 21 25 25 43 6 32 76 157 87 158 4 0 35 -23 70 -51 35 -29 109 -73 164
-99 241 -113 403 -136 907 -127 183 4 356 11 383 17 100 20 418 23 604 6 258
-25 1274 -26 1376 -1 136 32 256 109 295 190 11 23 28 50 38 58 16 15 20 14
45 -7 15 -13 27 -27 27 -31 0 -4 14 -24 30 -45 17 -21 30 -41 30 -45 0 -3 12
-25 28 -48 15 -23 32 -51 38 -62 6 -11 21 -21 33 -23 60 -9 -12 152 -137 305
l-54 65 16 42 c9 23 16 71 16 108 0 37 4 69 9 72 12 8 214 -79 264 -113 86
-57 87 -57 97 -41 28 44 -11 92 -129 155 -47 25 -89 45 -94 45 -8 0 -53 18
-106 43 -21 10 -22 16 -17 56 3 24 6 84 6 133 l0 90 98 -5 c114 -6 193 -20
280 -49 59 -20 64 -20 80 -5 38 38 -17 89 -111 103 -16 2 -68 13 -115 24 -57
13 -115 19 -169 17 l-81 -3 -7 76 c-3 41 -19 120 -35 175 -15 55 -31 118 -34
140 -4 22 -15 67 -25 100 -11 33 -26 85 -35 115 -77 271 -173 496 -280 656
-11 16 -29 45 -41 64 -54 88 -71 110 -82 110 -6 0 -23 -14 -37 -31z m100 -167
c20 -37 45 -76 54 -87 49 -56 183 -365 212 -490 5 -22 16 -60 24 -85 23 -69
86 -299 105 -385 16 -70 30 -185 24 -195 -4 -6 -24 -10 -45 -10 -53 0 -70 -8
-70 -35 0 -32 12 -38 79 -39 l56 -1 3 -70 c1 -38 -1 -95 -5 -125 l-8 -55 -40
-3 c-49 -4 -58 -12 -50 -45 6 -21 14 -26 43 -29 36 -3 37 -4 34 -38 -4 -60
-24 -160 -32 -165 -4 -3 -28 6 -52 20 -43 25 -102 33 -113 15 -11 -19 7 -60
27 -60 45 0 111 -53 99 -79 -5 -9 -14 -28 -21 -43 -24 -51 -92 -110 -169 -147
l-76 -36 -315 -8 c-173 -5 -333 -9 -355 -10 -114 -1 -682 24 -758 34 -109 13
-412 8 -802 -15 -370 -22 -650 -18 -785 12 -103 22 -230 71 -324 122 -63 35
-136 97 -136 117 0 17 131 133 158 139 12 4 25 17 28 30 13 51 -22 58 -83 17
-55 -38 -119 -97 -133 -124 l-12 -22 -24 29 c-30 37 -114 209 -114 234 0 23
35 43 131 74 75 24 109 55 85 75 -16 13 -78 2 -156 -29 -30 -12 -62 -24 -72
-27 -26 -8 -41 33 -42 116 l-1 76 85 5 c83 5 85 6 85 30 0 24 -2 25 -85 30
l-85 5 3 80 c2 44 7 94 12 110 19 62 40 165 40 193 0 15 12 66 26 113 14 46
28 98 31 114 3 17 9 35 13 40 4 6 20 47 34 92 15 46 32 85 37 88 10 7 109 210
190 393 18 39 35 72 39 72 4 0 24 -26 46 -57 39 -59 67 -93 115 -142 14 -14
59 -64 98 -111 85 -99 199 -213 223 -222 10 -4 24 3 39 18 13 13 50 33 84 43
136 42 196 46 760 46 508 0 550 -1 710 -23 94 -13 206 -30 250 -38 44 -9 100
-19 125 -24 53 -9 142 -36 187 -56 17 -8 36 -14 42 -14 15 0 83 -43 100 -64
16 -19 45 -21 58 -3 6 6 16 36 23 66 7 29 21 76 31 104 11 29 19 59 19 68 0 9
14 43 30 74 17 31 30 62 30 69 0 12 42 96 91 182 16 28 29 58 29 65 0 8 12 31
26 52 31 46 38 42 90 -51z"/>
<path d="M2729 4043 c-50 -45 -75 -100 -85 -182 -16 -147 94 -271 242 -271 88
0 134 23 197 98 25 32 27 39 27 131 0 93 -1 99 -30 137 -16 21 -30 45 -30 51
0 7 -19 26 -42 43 -39 29 -46 30 -139 30 l-99 0 -41 -37z m250 -62 c19 -15 39
-36 45 -46 6 -11 19 -31 29 -44 25 -34 22 -100 -5 -141 -13 -18 -45 -49 -73
-68 -43 -29 -56 -33 -90 -29 -73 10 -150 61 -181 119 -33 63 -5 161 64 217 33
28 38 29 106 24 57 -4 78 -11 105 -32z"/>
<path d="M2875 3901 c-30 -13 -85 -69 -85 -87 0 -22 19 -54 31 -54 6 0 24 11
40 25 l29 24 36 -24 c44 -30 74 -20 74 23 0 20 -12 37 -46 65 -50 40 -49 40
-79 28z"/>
<path d="M4960 4073 c-29 -11 -80 -55 -80 -69 0 -7 -9 -31 -20 -53 -28 -53
-38 -195 -16 -231 8 -14 20 -36 26 -49 26 -59 95 -89 203 -90 75 -1 80 1 125
35 26 19 59 53 75 75 25 36 27 47 27 132 -1 77 -4 98 -23 128 -34 56 -84 108
-113 119 -27 11 -179 12 -204 3z m146 -64 c34 -9 56 -24 95 -67 l51 -56 -4
-69 c-4 -69 -5 -71 -48 -109 -68 -59 -96 -71 -151 -65 -74 9 -130 48 -156 107
-22 53 -1 178 36 214 57 54 98 65 177 45z"/>
<path d="M5015 3869 c-45 -40 -62 -69 -45 -79 7 -4 10 -12 6 -18 -3 -5 1 -13
10 -16 19 -7 62 17 71 40 4 11 13 7 40 -16 28 -25 38 -28 53 -20 33 18 24 54
-25 99 -24 22 -51 41 -59 41 -9 0 -31 -14 -51 -31z"/>
</g>
</svg>
